# Blender 3.6.20
# www.blender.org
mtllib edit_skin_top.mtl
o torsoe
v -2.047500 6.300000 1.023749
v -2.047500 6.300000 -1.023750
v -2.047500 12.599998 1.023749
v -2.047500 12.599998 -1.023750
v -3.561251 12.599998 -1.023750
v -3.561251 12.599998 1.023750
v -2.047500 12.599998 1.023749
v -2.047500 12.599998 -1.023750
v -3.561251 6.300000 -1.023750
v -3.561251 6.300000 1.023750
v -2.047500 6.300000 1.023749
v -2.047500 6.300000 -1.023750
v -2.047500 6.300001 1.023749
v -2.047500 6.300001 -1.023750
v 2.047500 6.300000 -1.023750
v 2.047500 6.300000 1.023749
v 2.047500 12.599998 -1.023750
v 2.047500 12.599998 1.023749
v 2.047500 6.300000 -1.023750
v 2.047500 6.300000 1.023749
v 3.561250 6.300000 1.023750
v 3.561250 6.300000 -1.023750
v 2.047500 12.599998 -1.023750
v 2.047500 12.599998 1.023749
v 3.561250 12.599998 1.023750
v 3.561250 12.599998 -1.023750
v 0.000000 6.300000 1.023749
v 0.000000 6.300000 -1.023750
v 2.047500 6.300001 -1.023750
v 2.047500 6.300001 1.023749
v -0.000000 6.300000 1.023749
v -0.000000 6.300000 -1.023750
v 2.047500 12.599998 -1.023750
v 2.047500 12.599998 -1.023750
v 2.047500 12.599998 1.023749
v 2.047500 12.599998 1.023749
v 2.047500 6.300000 1.023749
v 2.047500 6.300000 1.023749
v 2.047500 6.300000 -1.023750
v 2.047500 6.300000 -1.023750
v -2.047500 12.599998 1.023749
v -2.047500 12.599998 1.023749
v -2.047500 6.300000 1.023749
v -2.047500 6.300000 1.023749
v -2.047500 12.599998 -1.023750
v -2.047500 12.599998 -1.023750
v -2.047500 6.300000 -1.023750
v -2.047500 6.300000 -1.023750
v -3.561251 12.599998 -1.023750
v -3.561251 12.599998 -1.023750
v -3.561251 6.300000 -1.023750
v -3.561251 6.300000 -1.023750
v -2.047500 12.599998 1.023749
v -2.047500 12.599998 1.023749
v -2.047500 6.300000 1.023749
v -2.047500 6.300000 1.023749
v -3.561251 12.599998 1.023750
v -3.561251 12.599998 1.023750
v -3.561251 6.300000 1.023750
v -3.561251 6.300000 1.023750
v -2.047500 12.599998 -1.023750
v -2.047500 12.599998 -1.023750
v -2.047500 6.300000 -1.023750
v -2.047500 6.300000 -1.023750
v -2.047500 6.300001 1.023749
v -2.047500 6.300001 1.023749
v -2.047500 6.300001 -1.023750
v -2.047500 6.300001 -1.023750
v 2.047500 12.599998 -1.023750
v 2.047500 12.599998 -1.023750
v 2.047500 12.599998 1.023749
v 2.047500 12.599998 1.023749
v 2.047500 6.300000 1.023749
v 2.047500 6.300000 1.023749
v 2.047500 6.300000 -1.023750
v 2.047500 6.300000 -1.023750
v 3.561250 12.599998 1.023750
v 3.561250 12.599998 1.023750
v 3.561250 6.300000 1.023750
v 3.561250 6.300000 1.023750
v 3.561250 12.599998 -1.023750
v 3.561250 12.599998 -1.023750
v 3.561250 6.300000 -1.023750
v 3.561250 6.300000 -1.023750
v 0.000000 6.300000 1.023749
v 0.000000 6.300000 1.023749
v -0.000000 6.300000 1.023749
v -0.000000 6.300000 1.023749
v 2.047500 6.300001 1.023749
v 2.047500 6.300001 1.023749
v 0.000000 6.300000 -1.023750
v 0.000000 6.300000 -1.023750
v 2.047500 6.300001 -1.023750
v 2.047500 6.300001 -1.023750
v -0.000000 6.300000 -1.023750
v -0.000000 6.300000 -1.023750
v -3.641102 12.694891 -1.131756
v -3.641102 6.205106 -1.131756
v -1.967649 12.694891 1.131755
v -1.967649 6.205106 1.131755
v -3.641102 12.694891 1.131756
v -3.641102 6.205106 1.131756
v -1.967649 12.694891 -1.131756
v -1.967649 6.205106 -1.131756
v -1.967649 6.205106 -1.131756
v -1.967649 12.694891 -1.131756
v -3.641102 6.205106 -1.131756
v -3.641102 6.205106 1.131756
v -3.641102 12.694891 1.131756
v -3.641102 12.694891 -1.131756
v -1.967649 6.205106 1.131755
v -1.967649 12.694891 1.131755
v -1.967649 6.205106 -1.131756
v -3.641102 6.205106 -1.131756
v -3.641102 12.694891 -1.131756
v -1.967649 12.694891 -1.131756
v -3.641102 6.205106 1.131756
v -3.641102 12.694891 1.131756
v -1.967649 6.205106 1.131755
v -1.967649 12.694891 1.131755
v 1.967649 12.694891 -1.131756
v 1.967649 12.694891 1.131755
v 1.967649 6.205106 1.131755
v 1.967649 6.205106 -1.131756
v 3.641101 12.694891 1.131756
v 3.641101 6.205106 1.131756
v 3.641101 12.694891 -1.131756
v 3.641101 6.205106 -1.131756
v 1.967649 12.694891 -1.131756
v 1.967649 6.205106 -1.131756
v 3.641101 12.694891 1.131756
v 3.641101 6.205106 1.131756
v 1.967649 12.694891 1.131755
v 1.967649 6.205106 1.131755
v 3.641101 12.694891 -1.131756
v 3.641101 6.205106 -1.131756
v 1.967649 12.694891 -1.131756
v 1.967649 6.205106 -1.131756
v 1.967649 12.694891 1.131755
v 3.641101 12.694891 1.131756
v 3.641101 6.205106 1.131756
v 1.967649 6.205106 1.131755
v 3.641101 12.694891 -1.131756
v 3.641101 6.205106 -1.131756
v 2.098893 12.679064 1.131346
v 2.098893 6.220935 1.131346
v 2.098893 6.220935 -1.131346
v 2.098893 12.679064 -1.131346
v -2.098893 12.679064 1.131346
v -2.098893 6.220935 1.131346
v -2.098893 12.679064 -1.131347
v -2.098893 6.220935 -1.131347
vn -0.0000 -0.0000 1.0000
vn -1.0000 -0.0000 -0.0000
vn -0.0000 -0.0000 -1.0000
vn -0.0000 -1.0000 -0.0000
vn -0.0000 1.0000 -0.0000
vn 1.0000 -0.0000 -0.0000
vt 0.625000 0.687500
vt 0.500000 0.687500
vt 0.500000 0.500000
vt 0.625000 0.500000
vt 0.437500 0.687500
vt 0.437500 0.500000
vt 0.312500 0.687500
vt 0.312500 0.500000
vt 0.562500 0.687500
vt 0.562500 0.750000
vt 0.437500 0.750000
vt 0.312500 0.750000
vt 0.687500 0.187500
vt 0.687500 0.000000
vt 0.750000 0.000000
vt 0.750000 0.187500
vt 0.625000 0.187500
vt 0.625000 0.000000
vt 0.750000 0.687500
vt 0.750000 0.750000
vt 0.812500 0.750000
vt 0.812500 0.687500
vt 0.687500 0.687500
vt 0.687500 0.750000
vt 0.250000 0.687500
vt 0.250000 0.500000
vt 0.375000 0.187500
vt 0.375000 0.250000
vt 0.312500 0.250000
vt 0.312500 0.187500
vt 0.562500 0.187500
vt 0.562500 0.000000
vt 0.500000 0.187500
vt 0.500000 0.000000
vt 0.625000 0.687500
vt 0.687500 0.500000
vt 0.625000 0.500000
vt 0.625000 0.250000
vt 0.562500 0.250000
vt 0.750000 0.500000
vt 0.812500 0.500000
vt 0.687500 0.250000
vt 0.875000 0.687500
vt 0.875000 0.500000
vt 0.125000 0.687500
vt 0.062500 0.687500
vt 0.062500 0.750000
vt 0.125000 0.750000
vt 0.937500 0.187500
vt 1.000000 0.187500
vt 1.000000 -0.000000
vt 0.937500 -0.000000
vt 0.875000 0.187500
vt 0.875000 -0.000000
vt 0.812500 0.187500
vt 0.812500 -0.000000
vt 0.750000 -0.000000
vt 0.812500 0.250000
vt 0.875000 0.250000
vt 0.937500 0.250000
vt 0.750000 0.437500
vt 0.812500 0.437500
vt 0.812500 0.500000
vt 0.750000 0.500000
vt 0.687500 0.437500
vt 0.687500 0.500000
vt 0.625000 0.437500
vt 0.625000 0.250000
vt 0.687500 0.250000
vt 0.750000 0.250000
vt 0.812500 0.250000
vt 0.875000 0.250000
vt 0.875000 0.437500
vt 0.500000 0.437500
vt 0.500000 0.250000
vt 0.437500 0.437500
vt 0.312500 0.437500
vt 0.437500 0.250000
vt 0.437506 0.500000
vt 0.437506 0.437500
vt 0.562494 0.437500
vt 0.562494 0.500000
vt 0.312500 0.437573
vt 0.312500 0.499927
vt 0.250000 0.250000
vt 0.250000 0.437500
vt 0.125252 0.500000
s 0
usemtl Character
f 35/1/1 3/2/1 1/3/1 16/4/1
f 41/2/2 4/5/2 2/6/2 43/3/2
f 45/5/3 33/7/3 39/8/3 47/6/3
f 15/9/4 37/10/4 44/11/4 48/5/4
f 46/5/5 42/11/5 18/12/5 17/7/5
f 7/13/3 11/14/3 10/15/3 6/16/3
f 8/17/2 12/18/2 55/14/2 53/13/2
f 19/19/5 20/20/5 21/21/5 22/22/5
f 26/23/4 25/24/4 24/20/4 23/19/4
f 36/25/6 38/26/6 40/8/6 34/7/6
f 68/27/5 66/28/5 86/29/5 92/30/5
f 5/31/1 9/32/1 63/18/1 61/17/1
f 57/33/6 59/34/6 51/32/6 49/31/6
f 77/35/2 81/23/2 83/36/2 79/37/2
f 50/31/4 62/17/4 54/38/4 58/39/4
f 82/23/1 69/19/1 75/40/1 84/36/1
f 70/19/6 71/22/6 73/41/6 76/40/6
f 64/17/5 52/13/5 60/42/5 56/38/5
f 72/22/3 78/43/3 80/44/3 74/41/3
f 94/45/5 96/46/5 88/47/5 90/48/5
f 99/49/1 101/50/1 102/51/1 100/52/1
f 103/53/6 112/49/6 111/52/6 104/54/6
f 97/55/3 106/53/3 105/54/3 98/56/3
f 109/16/2 110/55/2 107/56/2 108/57/2
f 115/55/5 118/58/5 120/59/5 116/53/5
f 113/53/4 119/59/4 117/60/4 114/49/4
f 124/61/4 128/62/4 126/63/4 123/64/4
f 127/65/5 121/61/5 122/64/5 125/66/5
f 131/67/6 132/68/6 136/69/6 135/65/6
f 143/65/3 144/69/3 130/70/3 129/61/3
f 137/61/2 138/70/2 134/71/2 133/62/2
f 139/62/1 142/71/1 141/72/1 140/73/1
f 145/67/1 149/74/1 150/75/1 146/38/1
f 151/76/3 148/77/3 147/29/3 152/78/3
f 150/79/4 152/80/4 147/81/4 146/82/4
f 145/83/5 148/84/5 151/6/5 149/76/5
f 145/77/6 146/29/6 147/85/6 148/86/6
f 150/75/2 149/74/2 151/76/2 152/78/2
f 14/87/5 13/87/5 27/87/5 65/87/5
l 31 30
l 28 85
l 67 91
l 89 29
l 32 87
l 93 95
