# Blender 3.6.19
# www.blender.org
o d20
v 0.402467 -0.096229 0.000000
v 0.123381 0.151751 0.215545
v 0.201611 -0.250710 0.348762
v 0.249962 -0.499451 -0.000000
v 0.201612 -0.250710 -0.348762
v 0.123381 0.151751 -0.215545
v -0.201611 -0.098211 0.348762
v -0.123381 -0.500672 0.215545
v -0.123381 -0.500672 -0.215545
v -0.201611 -0.098211 -0.348762
v -0.249962 0.150530 0.000000
v -0.402467 -0.252692 -0.000000
vn 0.7443 0.3358 0.5774
vn 0.6642 0.7475 -0.0000
vn 0.8738 -0.3305 0.3568
vn 0.8738 -0.3305 -0.3568
vn 0.7443 0.3358 -0.5774
vn -0.0033 1.0000 -0.0000
vn 0.1262 0.3338 0.9342
vn 0.3358 -0.7443 0.5774
vn 0.3358 -0.7443 -0.5774
vn 0.1262 0.3338 -0.9342
vn -0.3358 0.7443 0.5774
vn -0.1262 -0.3338 0.9342
vn 0.0033 -1.0000 -0.0000
vn -0.1262 -0.3338 -0.9342
vn -0.3358 0.7443 -0.5774
vn -0.8738 0.3305 0.3568
vn -0.7443 -0.3358 0.5774
vn -0.6642 -0.7475 -0.0000
vn -0.7443 -0.3358 -0.5774
vn -0.8738 0.3305 -0.3568
vt 0.158668 0.292667
vt 0.841332 0.292667
vt 0.500000 0.889998
s 0
f 1/1/1 2/2/1 3/3/1
f 2/3/2 1/1/2 6/2/2
f 1/1/3 3/2/3 4/3/3
f 1/1/4 4/2/4 5/3/4
f 1/3/5 5/1/5 6/2/5
f 2/1/6 6/2/6 11/3/6
f 3/3/7 2/1/7 7/2/7
f 4/1/8 3/2/8 8/3/8
f 5/3/9 4/1/9 9/2/9
f 6/3/10 5/1/10 10/2/10
f 2/1/11 11/2/11 7/3/11
f 3/1/12 7/2/12 8/3/12
f 4/3/13 8/1/13 9/2/13
f 5/3/14 9/1/14 10/2/14
f 6/1/15 10/2/15 11/3/15
f 7/1/16 11/2/16 12/3/16
f 8/1/17 7/2/17 12/3/17
f 9/2/18 8/3/18 12/1/18
f 10/1/19 9/2/19 12/3/19
f 11/1/20 10/2/20 12/3/20
