# Blender 3.6.19
# www.blender.org
o d4
v 0.381191 -0.499753 0.331779
v 0.000808 0.043490 0.331400
v -0.366795 -0.500878 -0.000000
v 0.381406 -0.500060 -0.331400
v 0.001023 0.043183 -0.331779
vn -0.3898 -0.2723 0.8797
vn 0.0013 -1.0000 0.0005
vn -0.8286 0.5599 -0.0005
vn -0.3893 -0.2732 -0.8796
vn 0.8192 0.5736 -0.0000
vt 0.081825 0.234942
vt 0.926186 0.233875
vt 0.504928 0.965645
vt 0.925727 0.223629
vt 0.504853 0.955618
vt 0.081367 0.225135
vt 0.874992 0.125000
vt 0.874992 0.874995
vt 0.124999 0.875000
vt 0.124999 0.125005
s 0
f 1/1/1 2/2/1 3/3/1
f 1/2/2 3/3/2 4/1/2
f 2/1/3 5/2/3 3/3/3
f 4/4/4 3/5/4 5/6/4
f 1/7/5 4/8/5 5/9/5 2/10/5
