# Blender 3.6.19
# www.blender.org
o d6
v -0.280000 -0.499700 0.280000
v -0.280000 0.060300 0.280000
v -0.280000 -0.499700 -0.280000
v -0.280000 0.060300 -0.280000
v 0.280000 -0.499700 0.280000
v 0.280000 0.060300 0.280000
v 0.280000 -0.499700 -0.280000
v 0.280000 0.060300 -0.280000
vn -1.0000 -0.0000 -0.0000
vn -0.0000 -0.0000 -1.0000
vn 1.0000 -0.0000 -0.0000
vn -0.0000 -0.0000 1.0000
vn -0.0000 -1.0000 -0.0000
vn -0.0000 1.0000 -0.0000
vt 0.816279 0.183721
vt 0.816279 0.816279
vt 0.183721 0.816279
vt 0.183721 0.183721
vt 0.816279 0.183721
vt 0.816279 0.816279
vt 0.183721 0.816279
vt 0.183721 0.183721
vt 0.183721 0.183721
vt 0.816278 0.183721
vt 0.816279 0.816279
vt 0.183721 0.816279
vt 0.816279 0.816279
vt 0.183721 0.183721
s 0
f 1/1/1 2/2/1 4/3/1 3/4/1
f 3/1/2 4/2/2 8/3/2 7/4/2
f 7/5/3 8/6/3 6/7/3 5/8/3
f 5/5/4 6/6/4 2/7/4 1/8/4
f 3/9/5 7/10/5 5/11/5 1/12/5
f 8/13/6 4/12/6 2/14/6 6/1/6
