# Blender 3.6.19
# www.blender.org
o d8
v -0.175780 -0.501289 0.306812
v 0.355222 -0.498978 0.000000
v 0.175978 0.001074 0.306461
v -0.355222 -0.001520 -0.000000
v -0.175978 -0.501572 -0.306461
v 0.175780 0.000791 -0.306812
vn -0.4727 0.3315 0.8165
vn 0.4732 -0.3308 0.8165
vn -0.9413 -0.3377 0.0005
vn 0.0046 -1.0000 0.0005
vn -0.0046 1.0000 -0.0005
vn 0.9413 0.3377 -0.0005
vn -0.4732 0.3308 -0.8165
vn 0.4727 -0.3315 -0.8165
vt 0.131150 0.277566
vt 0.876861 0.276623
vt 0.504820 0.922898
s 0
f 1/1/1 3/2/1 4/3/1
f 1/1/2 2/2/2 3/3/2
f 1/2/3 4/3/3 5/1/3
f 2/1/4 1/2/4 5/3/4
f 3/1/5 6/2/5 4/3/5
f 3/3/6 2/1/6 6/2/6
f 5/3/7 4/1/7 6/2/7
f 2/1/8 5/2/8 6/3/8
